<?xml version="1.0" standalone="no"?><!DOCTYPE svg PUBLIC "-//W3C//DTD SVG 1.1//EN" "http://www.w3.org/Graphics/SVG/1.1/DTD/svg11.dtd"><svg t="1573383707353" class="icon" viewBox="0 0 1024 1024" version="1.1" xmlns="http://www.w3.org/2000/svg" p-id="3717" xmlns:xlink="http://www.w3.org/1999/xlink" width="64" height="64"><defs><style type="text/css"></style></defs><path d="M779.567407 603.401481c-2.275556 2.654815-4.740741 5.30963-7.205926 7.774815a81.351111 81.351111 0 0 1-58.216296 23.703704 82.868148 82.868148 0 0 1-65.232592-31.668148 97.46963 97.46963 0 0 1-7.205926 7.964444 80.971852 80.971852 0 0 1-58.026667 23.703704 83.057778 83.057778 0 0 1-65.422222-31.668148 71.86963 71.86963 0 0 1-7.205926 7.964444 81.161481 81.161481 0 0 1-58.216296 23.703704 82.488889 82.488889 0 0 1-65.042963-31.478519c-2.275556 2.654815-4.740741 5.30963-7.205926 7.774815A81.351111 81.351111 0 0 1 322.37037 634.88a83.057778 83.057778 0 0 1-65.422222-31.668148 56.888889 56.888889 0 0 1-7.205926 7.964444 80.213333 80.213333 0 0 1-54.802963 23.703704H189.62963v208.592593q163.65037 15.739259 328.059259 15.36h69.973333v-173.890371a16.877037 16.877037 0 0 1 17.066667-16.687407h144.687407a16.877037 16.877037 0 0 1 17.066667 16.687407v164.02963c26.548148-1.896296 52.906667-4.361481 79.265185-6.826667V634.88h-1.517037a82.10963 82.10963 0 0 1-64.663704-31.478519z m-269.463703 227.555556H272.687407a17.066667 17.066667 0 0 1-3.223703-34.512593v-111.502222a16.877037 16.877037 0 0 1 17.066666-16.687407h209.540741a16.877037 16.877037 0 0 1 17.066667 16.687407V796.444444a17.066667 17.066667 0 0 1-3.034074 33.754075z" fill="#EDF4FF" p-id="3718"></path><path d="M189.62963 842.714074v63.905185h398.222222v-49.303703h-69.973333q-164.02963 1.137778-328.248889-14.601482zM767.051852 906.619259h79.265185v-64.474074c-26.358519 2.465185-52.717037 4.93037-79.265185 6.826667z" fill="#D8E3F0" p-id="3719"></path><path d="M655.928889 294.684444h25.979259v39.442963h-25.979259zM380.776296 334.506667v-39.442963l-26.168889-0.37926v39.822223h26.168889z" fill="#FCFEFF" p-id="3720"></path><path d="M374.139259 797.013333v-26.358518l-8.343703 26.358518h8.343703zM349.108148 701.819259h-45.511111v95.194074h14.980741l30.53037-95.194074zM408.272593 701.819259v95.194074h15.549629l30.530371-95.194074h-46.08z" fill="#96DDFF" p-id="3721"></path><path d="M365.795556 797.013333l8.343703-26.358518v-68.835556h-25.031111l-30.53037 95.194074h47.217778zM423.822222 797.013333h55.182222v-95.194074h-24.651851l-30.530371 95.194074z" fill="#69BAF9" p-id="3722"></path><path d="M622.364444 872.296296c37.925926-1.137778 74.145185-2.844444 110.554075-5.309629V701.62963h-110.554075z m33.185186-99.555555a21.238519 21.238519 0 0 1 22.945185 4.361481 20.48 20.48 0 0 1 4.171852 23.324445 21.048889 21.048889 0 0 1-40.391111-7.774815 20.66963 20.66963 0 0 1 13.274074-19.152593z" fill="#96DDFF" p-id="3723"></path><path d="M622.364444 906.619259h110.554075v-38.874074c-36.408889 2.465185-73.007407 4.171852-110.554075 5.30963z" fill="#69BAF9" p-id="3724"></path><path d="M529.256296 177.493333H297.528889l-0.18963 80.213334h209.92l21.997037-80.213334z" fill="#FFC670" p-id="3725"></path><path d="M739.176296 257.706667V177.493333H529.256296l-21.997037 80.213334h231.917037z" fill="#FFA742" p-id="3726"></path><path d="M891.259259 554.097778h-94.814815a47.976296 47.976296 0 0 0 48.165926 47.597037 47.028148 47.028148 0 0 0 33.943704-13.842963 47.597037 47.597037 0 0 0 14.222222-31.478519z" fill="#D8E3F0" p-id="3727"></path><path d="M841.576296 371.674074h-78.506666l20.29037 109.037037a17.066667 17.066667 0 0 1-13.653333 18.962963l7.016296 37.925926a14.411852 14.411852 0 0 1 3.034074 0 16.877037 16.877037 0 0 1 17.066667 16.687407h94.814815z" fill="#FCFEFF" p-id="3728"></path><path d="M679.822222 587.851852a48.924444 48.924444 0 0 0 34.133334 13.842963 46.648889 46.648889 0 0 0 34.133333-13.842963 45.89037 45.89037 0 0 0 14.411852-33.564445h-96.711111a47.786667 47.786667 0 0 0 14.032592 33.564445z" fill="#F0504D" p-id="3729"></path><path d="M766.482963 500.242963a16.877037 16.877037 0 0 1-16.877037-13.842963l-21.617778-115.105185h-79.075555l10.24 110.364444a16.118519 16.118519 0 0 1-3.792593 12.325926 17.066667 17.066667 0 0 1-11.567407 6.068148l3.413333 37.925926h1.517037a16.877037 16.877037 0 0 1 17.066667 16.687408h96.711111a16.497778 16.497778 0 0 1 14.032592-16.118519l-7.016296-37.925926z" fill="#F6716F" p-id="3730"></path><path d="M583.49037 601.505185a47.976296 47.976296 0 0 0 48.165926-47.407407h-96.331852a47.786667 47.786667 0 0 0 48.165926 47.407407z" fill="#D8E3F0" p-id="3731"></path><path d="M644.740741 500.053333h-1.706667a17.256296 17.256296 0 0 1-17.066667-15.36l-10.429629-113.777777h-80.213334v112.071111a16.877037 16.877037 0 0 1-17.066666 16.877037v37.925926a16.877037 16.877037 0 0 1 17.066666 16.687407h96.331852a16.687407 16.687407 0 0 1 15.54963-16.497778l-3.413333-37.925926z" fill="#FCFEFF" p-id="3732"></path><path d="M427.994074 597.712593a48.924444 48.924444 0 0 0 49.872593 0 47.407407 47.407407 0 0 0 23.324444-43.614815h-96.521481a47.786667 47.786667 0 0 0 23.324444 43.614815z" fill="#F0504D" p-id="3733"></path><path d="M501.191111 483.176296v-112.45037h-79.454815l-10.429629 113.777778a17.256296 17.256296 0 0 1-17.066667 15.17037h-1.517037l-3.413333 37.925926a16.687407 16.687407 0 0 1 15.36 16.497778h96.521481a16.877037 16.877037 0 0 1 17.066667-16.687408v-37.925926a16.877037 16.877037 0 0 1-17.066667-16.308148z" fill="#F6716F" p-id="3734"></path><path d="M298.097778 595.247407a48.924444 48.924444 0 0 0 48.355555 0 47.217778 47.217778 0 0 0 24.272593-41.149629h-96.711111a47.407407 47.407407 0 0 0 24.082963 41.149629z" fill="#D8E3F0" p-id="3735"></path><path d="M392.722963 499.484444a17.635556 17.635556 0 0 1-11.757037-5.878518 16.308148 16.308148 0 0 1-3.792593-12.325926l10.42963-110.554074h-79.265185l-21.428148 115.105185a16.877037 16.877037 0 0 1-17.066667 13.842963h-2.654815l-7.205926 37.925926a16.497778 16.497778 0 0 1 14.032593 16.118519h96.711111a16.877037 16.877037 0 0 1 17.066667-16.687408h1.517037l3.413333-37.925926z" fill="#FCFEFF" p-id="3736"></path><path d="M159.857778 587.851852a47.407407 47.407407 0 0 0 80.023703-34.512593H143.739259A51.38963 51.38963 0 0 0 159.857778 587.851852z" fill="#F0504D" p-id="3737"></path><path d="M266.619259 499.674074a17.066667 17.066667 0 0 1-13.653333-18.962963l20.29037-109.037037h-78.506666l-51.2 182.234074h96.142222a16.877037 16.877037 0 0 1 17.066667-16.687407 14.411852 14.411852 0 0 1 3.034074 0l7.205926-37.925926z" fill="#F6716F" p-id="3738"></path><path d="M513.137778 796.444444v-111.502222a16.877037 16.877037 0 0 0-17.066667-16.687407h-208.592592a16.877037 16.877037 0 0 0-17.066667 16.687407V796.444444a17.066667 17.066667 0 0 0 3.223704 33.754075H510.103704a17.066667 17.066667 0 0 0 3.034074-33.754075z m-34.133334 0h-70.731851v-94.814814h70.731851zM303.407407 701.62963h70.542223v94.814814H303.407407zM663.703704 813.321481a20.859259 20.859259 0 0 0 18.962963-12.894814 20.48 20.48 0 0 0-4.171852-22.945186 21.238519 21.238519 0 0 0-22.945185-4.361481 20.66963 20.66963 0 0 0-12.894815 18.962963A20.859259 20.859259 0 0 0 663.703704 813.321481z" fill="#3D3D63" p-id="3739"></path><path d="M927.857778 906.619259h-47.407408V627.105185a80.213333 80.213333 0 0 0 47.407408-73.007407 16.687407 16.687407 0 0 0 0-4.361482L872.296296 349.866667a17.066667 17.066667 0 0 0-17.066666-12.325926h-139.188149v-46.26963h40.201482a16.877037 16.877037 0 0 0 17.066667-16.687407v-113.777778a17.066667 17.066667 0 0 0-5.12-11.946667 17.825185 17.825185 0 0 0-11.946667-4.93037h-475.97037a17.066667 17.066667 0 0 0-17.066667 16.877037v113.777778a16.877037 16.877037 0 0 0 17.066667 16.687407h40.201481v46.26963H182.423704a17.066667 17.066667 0 0 0-17.066667 12.325926L109.985185 546.702222a16.687407 16.687407 0 0 0 0 4.361482 84.764444 84.764444 0 0 0 26.737778 61.629629 78.127407 78.127407 0 0 0 18.962963 13.274074v280.651852H108.657778a16.877037 16.877037 0 1 0 0 33.564445h819.2a16.877037 16.877037 0 1 0 0-33.564445z m-81.540741-64.474074v64.474074h-79.265185V684.942222a16.877037 16.877037 0 0 0-17.066667-16.687407h-144.687407a16.877037 16.877037 0 0 0-17.066667 16.687407v221.677037H189.62963V634.88h4.74074a80.213333 80.213333 0 0 0 54.802963-23.703704 56.888889 56.888889 0 0 0 7.205926-7.964444A83.057778 83.057778 0 0 0 322.37037 634.88a81.351111 81.351111 0 0 0 58.216297-23.703704c2.465185-2.465185 4.93037-5.12 7.205926-7.774815a82.488889 82.488889 0 0 0 65.042963 31.478519A81.161481 81.161481 0 0 0 512 611.176296a71.86963 71.86963 0 0 0 7.205926-7.964444 83.057778 83.057778 0 0 0 65.422222 31.668148 80.971852 80.971852 0 0 0 58.026667-23.703704 97.46963 97.46963 0 0 0 7.205926-7.964444 82.868148 82.868148 0 0 0 65.232592 31.668148 81.351111 81.351111 0 0 0 58.216297-23.703704c2.465185-2.465185 4.93037-5.12 7.205926-7.774815a82.10963 82.10963 0 0 0 65.232592 31.478519h1.517037z m-113.777778 25.6v38.874074h-110.174815V701.62963h110.554075z m111.881482-265.481481A47.976296 47.976296 0 0 1 796.444444 554.097778a16.877037 16.877037 0 0 0-17.066666-16.687408 14.411852 14.411852 0 0 0-3.034074 0 16.497778 16.497778 0 0 0-14.032593 16.118519 45.89037 45.89037 0 0 1-14.222222 34.322963 46.648889 46.648889 0 0 1-34.133333 13.842963 48.924444 48.924444 0 0 1-34.133334-13.842963 47.786667 47.786667 0 0 1-14.032592-33.564445 16.877037 16.877037 0 0 0-17.066667-16.687407h-1.517037a16.687407 16.687407 0 0 0-15.54963 16.497778 48.165926 48.165926 0 0 1-96.331852 0 17.066667 17.066667 0 0 0-34.133333 0 47.407407 47.407407 0 0 1-23.324444 43.614815 48.924444 48.924444 0 0 1-49.872593 0 47.786667 47.786667 0 0 1-23.324444-43.614815 16.687407 16.687407 0 0 0-15.36-16.497778h-1.517037a16.877037 16.877037 0 0 0-17.066667 16.687407 47.217778 47.217778 0 0 1-24.272593 41.14963 48.924444 48.924444 0 0 1-48.355555 0 47.407407 47.407407 0 0 1-24.082963-41.14963 16.497778 16.497778 0 0 0-14.032593-16.118518 14.411852 14.411852 0 0 0-3.034074 0 16.877037 16.877037 0 0 0-17.066667 16.687407A47.407407 47.407407 0 0 1 159.857778 587.851852a51.38963 51.38963 0 0 1-16.118519-34.512593l51.2-182.234074h78.506667l-20.29037 109.037037a17.066667 17.066667 0 0 0 13.653333 18.962963h3.223704a16.877037 16.877037 0 0 0 17.066666-13.842963l21.428148-115.105185h79.265186l-10.42963 110.554074a16.308148 16.308148 0 0 0 3.792593 12.325926 17.635556 17.635556 0 0 0 11.757037 5.878519h1.517037a17.256296 17.256296 0 0 0 17.066666-15.170371l10.42963-113.777778h79.454815v112.450371a17.066667 17.066667 0 0 0 34.133333 0v-111.312593h79.265185l10.42963 113.777778a17.256296 17.256296 0 0 0 17.066667 15.36H644.740741a17.066667 17.066667 0 0 0 11.567407-6.068148 16.118519 16.118519 0 0 0 3.792593-12.325926l-10.24-110.364445h79.075555l21.617778 115.105186a16.877037 16.877037 0 0 0 16.877037 13.842963h3.223704a17.066667 17.066667 0 0 0 13.653333-18.962963l-21.238518-109.795556h78.506666L891.259259 554.097778v2.465185a47.597037 47.597037 0 0 1-12.705185 31.288889 47.028148 47.028148 0 0 1-33.754074 13.842963zM297.528889 177.493333H739.555556v80.213334H297.339259z m83.247407 117.570371v39.442963H354.607407v-39.822223z m301.131852 0v39.442963h-25.979259v-39.822223z m-60.112592-3.034074v46.269629H414.72v-46.648889z" fill="#222222" p-id="3740"></path></svg>