<?xml version="1.0" standalone="no"?><!DOCTYPE svg PUBLIC "-//W3C//DTD SVG 1.1//EN" "http://www.w3.org/Graphics/SVG/1.1/DTD/svg11.dtd"><svg t="1566803003988" class="icon" viewBox="0 0 1024 1024" version="1.1" xmlns="http://www.w3.org/2000/svg" p-id="7853" xmlns:xlink="http://www.w3.org/1999/xlink" width="64" height="64"><defs><style type="text/css"></style></defs><path d="M928.35350001 86.4125c0-7.48800001-1.1655-13.7295-2.80350001-19.35-31.401-8.3115-72.2655 1.224-106.86600001 18.0045-7.0605 3.411-23.841 13.6485-48.77999999 28.764a1880.1855 1880.1855 0 0 1-23.3145 14.112c-0.4545 0.2025-0.6525 0.639-0.9675 0.8595C677.69000001 87.4385 598.2515 63.10699999 513.06650002 63.10699999 265.5125 63.1115 64.142 264.491 64.142 512c0 82.971 23.0625 160.5375 62.4465 227.2545C80 810.9485 56.933 862.8155 62.936 897.902c1.287 7.218 13.6485 8.3205 20.43449999 8.3205 138.744 0 455.7555-304.3305 495.26100001-343.197 174.177-171.216 349.8885-380.7135 349.72200001-476.613M304.6625 610.91c-44.208 0-80.1675-35.928-80.1675-80.1585 0-44.1585 35.973-80.1675 80.1675-80.1675 44.17200001 0 80.1405 35.973 80.1405 80.1675-0.0045 44.2305-35.96400001 80.15849999-80.1405 80.1585m141.06149999-224.44200001c-53.0685 0-96.1875-43.173-96.18749999-96.20099999 0-53.073 43.1775-96.1875 96.18750001-96.1875 53.0325 0 96.2055 43.155 96.20549999 96.1875 0.0495 53.0235-43.1685 96.201-96.20549999 96.20099999m449.79749999-108.36899999c-67.28399999 99.8595-172.9395 219.7665-278.388 323.46-28.7055 28.26000001-202.71599999 196.8705-348.81749999 286.7085 0.1215-0.1575 0.2025-0.1575 0.34199999-0.243 70.4115 45.9135 154.278 72.864 244.45799999 72.864 247.5225 0 448.8885-201.3255 448.88850001-448.89749999-0.0495-85.7385-24.615-165.6045-66.483-233.89200001m-256.4415 522.495c-35.3295 0-64.152-28.7415-64.152-64.15200001 0-35.415 28.782-64.1565 64.152-64.15649999s64.152 28.746 64.152 64.15649999-28.746 64.152-64.152 64.15200001m0 0z" p-id="7854" fill="#4485f5"></path></svg>