<?xml version="1.0" standalone="no"?><!DOCTYPE svg PUBLIC "-//W3C//DTD SVG 1.1//EN" "http://www.w3.org/Graphics/SVG/1.1/DTD/svg11.dtd"><svg t="1566803029378" class="icon" viewBox="0 0 1024 1024" version="1.1" xmlns="http://www.w3.org/2000/svg" p-id="8218" xmlns:xlink="http://www.w3.org/1999/xlink" width="64" height="64"><defs><style type="text/css"></style></defs><path d="M455.521173 201.662953c-51.697429 0-93.773733 42.074258-93.773733 93.77271 0 51.702546 42.076304 93.77885 93.773733 93.77885 51.704592 0 93.777827-42.076304 93.777827-93.77885C549.298999 243.736187 507.225765 201.662953 455.521173 201.662953zM455.521173 326.694597c-17.22122 0-31.257911-14.033621-31.257911-31.258934 0-17.223267 14.036691-31.255865 31.257911-31.255865 17.22429 0 31.260981 14.033621 31.260981 31.255865C486.783177 312.659953 472.745463 326.694597 455.521173 326.694597z" p-id="8219" fill="#797979"></path><path d="M314.863642 451.730335c-43.078121 0-78.148871 35.069727-78.148871 78.142731 0 43.10575 35.07075 78.146824 78.148871 78.146824 43.070958 0 78.144778-35.041074 78.144778-78.146824C393.009444 486.800062 357.9346 451.730335 314.863642 451.730335zM314.863642 545.499975c-8.630564 0-15.628956-6.996344-15.628956-15.626909 0-8.626471 6.998391-15.629979 15.628956-15.629979 8.626471 0 15.625886 7.004531 15.625886 15.629979C330.489528 538.503631 323.491137 545.499975 314.863642 545.499975z" p-id="8220" fill="#797979"></path><path d="M687.27956 693.851745c-11.57257-11.568477-27.840068-18.306948-44.205804-18.306948-16.368806 0-32.631188 6.738471-44.205804 18.306948-11.57257 11.57564-18.310018 27.847232-18.310018 44.205804 0 16.362666 6.734378 32.635281 18.306948 44.209898 11.574616 11.568477 27.843138 18.306948 44.208874 18.306948 16.368806 0 32.628118-6.738471 44.202735-18.306948 11.57564-11.57564 18.313088-27.847232 18.313088-44.209898C705.589578 721.698976 698.85213 705.427384 687.27956 693.851745z" p-id="8221" fill="#797979"></path><path d="M886.010741 279.053554c25.13547-37.312814 43.149752-69.562309 53.618175-96.03831 16.757662-42.383296 15.035438-74.090439-5.115508-94.241384-8.112772-8.110725-23.211654-23.212678-48.730864-20.408819-14.0766 1.545192-28.224832 7.80578-56.415894 20.278859-13.469779 5.960759-30.235628 13.379729-51.600215 22.330588-16.160051 6.77224-23.772426 25.362644-17.001209 41.523719 6.77224 16.163121 25.364691 23.774473 41.524742 17.002232 21.942755-9.194406 39.026852-16.753569 52.754504-22.827915 12.960173-5.734608 25.372877-11.226692 32.598442-13.782911-0.246617 8.855692-5.991458 42.445718-65.763796 127.419018-59.276035 84.274382-151.253866 190.017728-258.990612 297.753451C459.303312 661.651368 353.955986 751.018745 265.355065 810.547537c-3.260254 0.861624-6.440689 2.230808-9.4093 4.197602-73.948199 48.941666-112.860441 60.563354-127.005602 61.391209 0.865717-11.82328 9.128915-47.810912 66.210981-131.001613 8.884344-12.950963 6.824429-30.132274-4.090155-40.698934-33.642215-57.223283-51.394531-122.514311-51.394531-189.305507 0-206.253504 167.799704-374.053208 374.053208-374.053208 72.623018 0 108.129696 9.576099 171.736363 36.549427 16.132422 6.843872 34.755572-0.691755 41.596374-16.822131 6.840802-16.132422-0.691755-34.755572-16.822131-41.596374C642.417817 90.451058 597.952092 77.621868 513.720689 77.621868c-116.862591 0-226.731908 45.509497-309.364907 128.143519C121.720737 288.398386 76.212264 398.266679 76.212264 515.130294c0 74.40664 18.86158 147.242506 54.682413 211.868385-25.425066 38.677904-43.635823 72.221882-54.205553 99.899244-16.562211 43.364647-14.729469 75.584466 5.450129 95.763041 11.210319 11.210319 25.876344 16.85897 44.364417 16.85897 34.604122-0.00307 82.578764-19.816325 146.154731-60.013839 72.92387 50.077535 158.016897 76.471672 247.145843 76.471672 116.861568 0 226.728838-45.511543 309.363883-128.143519 82.634022-82.636069 128.143519-192.502315 128.143519-309.363883C957.310623 432.633395 932.712389 350.266455 886.010741 279.053554zM519.803221 892.52255c-66.9846 0-131.288139-17.439184-188.201359-50.722218 84.915995-60.758806 181.453678-144.164401 276.157597-238.871389 94.662986-94.659917 177.679725-188.183963 238.078327-267.919982 31.510668 55.772234 48.01762 118.445646 48.01762 183.461405C893.855406 724.721823 726.055702 892.52255 519.803221 892.52255z" p-id="8222" fill="#797979"></path></svg>