<?xml version="1.0" standalone="no"?><!DOCTYPE svg PUBLIC "-//W3C//DTD SVG 1.1//EN" "http://www.w3.org/Graphics/SVG/1.1/DTD/svg11.dtd"><svg t="1574835484346" class="icon" viewBox="0 0 1024 1024" version="1.1" xmlns="http://www.w3.org/2000/svg" p-id="4268" xmlns:xlink="http://www.w3.org/1999/xlink" width="64" height="64"><defs><style type="text/css"></style></defs><path d="M147.769111 875.432137c-198.090484-198.090484-198.090484-523.981279 0-722.071763s523.981279-198.090484 722.071763 0 198.090484 523.981279 0 722.071763-517.591264 198.090484-722.071763 0zM812.330733 210.870515C646.190328 44.730109 377.809672 44.730109 211.669267 210.870515s-166.140406 434.521061 0 600.661466 434.521061 166.140406 600.661466 0 166.140406-434.521061 0-600.661466z" fill="#FF5A6A" p-id="4269"></path><path d="M722.870515 664.561622L575.900156 511.201248l153.360374-153.360374c19.170047-19.170047 19.170047-44.730109 0-63.900156-19.170047-19.170047-44.730109-19.170047-63.900156 0L512 447.301092 358.639626 300.330733c-19.170047-19.170047-44.730109-19.170047-63.900156 0-19.170047 19.170047-19.170047 44.730109 0 63.900156L448.099844 511.201248l-153.360374 153.360374c-19.170047 19.170047-19.170047 44.730109 0 63.900156 19.170047 19.170047 44.730109 19.170047 63.900156 0L512 575.101404l153.360374 153.360374c19.170047 19.170047 44.730109 19.170047 63.900156 0 12.780031-25.560062 12.780031-51.120125-6.390015-63.900156z" fill="#FF5A6A" p-id="4270"></path></svg>