<?xml version="1.0" standalone="no"?><!DOCTYPE svg PUBLIC "-//W3C//DTD SVG 1.1//EN" "http://www.w3.org/Graphics/SVG/1.1/DTD/svg11.dtd"><svg t="1585293806214" class="icon" viewBox="0 0 1024 1024" version="1.1" xmlns="http://www.w3.org/2000/svg" p-id="7648" xmlns:xlink="http://www.w3.org/1999/xlink" width="32" height="32"><defs><style type="text/css"></style></defs><path d="M512 512m-512 0a512 512 0 1 0 1024 0 512 512 0 1 0-1024 0Z" fill="#FFC236" p-id="7649"></path><path d="M541.013333 676.977778H438.044444v-36.408889A153.031111 153.031111 0 0 1 455.111111 568.888889a196.266667 196.266667 0 0 1 51.2-56.888889 270.222222 270.222222 0 0 0 56.888889-56.888889 85.902222 85.902222 0 0 0 13.653333-46.648889 56.888889 56.888889 0 0 0-20.48-46.08 87.608889 87.608889 0 0 0-56.888889-17.066666A204.231111 204.231111 0 0 0 358.4 398.222222V280.462222a300.373333 300.373333 0 0 1 149.048889-38.684444 211.626667 211.626667 0 0 1 138.24 42.666666 135.964444 135.964444 0 0 1 49.493333 110.364445 170.666667 170.666667 0 0 1-20.48 82.488889 270.791111 270.791111 0 0 1-69.404444 77.937778 241.777778 241.777778 0 0 0-52.906667 51.768888 85.902222 85.902222 0 0 0-11.377778 45.511112z m-51.2 56.888889a72.817778 72.817778 0 0 1 50.631111 18.773333 60.302222 60.302222 0 0 1 21.048889 46.08 56.888889 56.888889 0 0 1-21.048889 45.511111 72.817778 72.817778 0 0 1-50.631111 18.773333 71.111111 71.111111 0 0 1-50.631111-19.342222 59.733333 59.733333 0 0 1-20.48-45.511111 60.871111 60.871111 0 0 1 20.48-46.08 71.111111 71.111111 0 0 1 50.631111-18.204444z" fill="#FFFFFF" p-id="7650"></path></svg>