<?xml version="1.0" standalone="no"?><!DOCTYPE svg PUBLIC "-//W3C//DTD SVG 1.1//EN" "http://www.w3.org/Graphics/SVG/1.1/DTD/svg11.dtd"><svg t="1574823395775" class="icon" viewBox="0 0 1024 1024" version="1.1" xmlns="http://www.w3.org/2000/svg" p-id="6365" xmlns:xlink="http://www.w3.org/1999/xlink" width="64" height="64"><defs><style type="text/css"></style></defs><path d="M511.850278 0c-282.217319 0-511.850044 229.632725-511.850044 511.850044s229.632725 511.850044 511.850044 511.850044 511.850044-229.632725 511.850044-511.850044-229.632725-511.850044-511.850044-511.850044z m0 940.724397c-236.530704 0-428.874353-192.44362-428.874353-428.874353 0-236.530704 192.44362-428.874353 428.874353-428.874353s428.874353 192.44362 428.874353 428.874353-192.343649 428.874353-428.874353 428.874353z" fill="#FA7A78" p-id="6366"></path><path d="M511.850278 742.482476c-22.993264 0-41.487845 18.494582-41.487845 41.487845s18.594552 41.487845 41.487845 41.487846c22.993264 0 41.487845-18.494582 41.487846-41.487846s-18.594552-41.487845-41.487846-41.487845zM511.850278 226.533633c-105.36913 0-191.144001 85.774871-191.144001 191.144001 0 22.893293 18.594552 41.487845 41.487846 41.487845s41.487845-18.594552 41.487845-41.487845c0-59.682515 48.485795-108.16831 108.16831-108.168311s108.16831 48.485795 108.16831 108.168311c0 52.884506-37.788929 97.771356-89.87367 106.668749-4.498682 0.799766-8.697452 2.399297-12.496338 4.498682-1.999414-0.299912-3.998828-0.599824-6.098214-0.599824-22.893293 0-41.487845 18.594552-41.487845 41.487845V660.106609c0 22.893293 18.594552 41.487845 41.487845 41.487846s41.487845-18.594552 41.487845-41.487846v-55.983598c87.374402-19.194377 149.956068-96.071854 149.956068-186.445377 0-105.36913-85.774871-191.144001-191.144001-191.144001z" fill="#FA7A78" p-id="6367"></path></svg>