<?xml version="1.0" standalone="no"?><!DOCTYPE svg PUBLIC "-//W3C//DTD SVG 1.1//EN" "http://www.w3.org/Graphics/SVG/1.1/DTD/svg11.dtd"><svg t="1566804408659" class="icon" viewBox="0 0 1024 1024" version="1.1" xmlns="http://www.w3.org/2000/svg" p-id="9086" width="36" height="36" xmlns:xlink="http://www.w3.org/1999/xlink"><defs><style type="text/css"></style></defs><path d="M504.6 512.5m-371.5 0a371.5 371.5 0 1 0 743 0 371.5 371.5 0 1 0-743 0Z" fill="#FFD101" p-id="9087"></path><path d="M504.6 903a389.42 389.42 0 1 1 152-30.7 388.07 388.07 0 0 1-152 30.7z m0-743c-194.37 0-352.5 158.13-352.5 352.5S310.23 865 504.6 865s352.49-158.13 352.49-352.5S699 160 504.6 160z" fill="#282828" p-id="9088"></path><path d="M504.6 889a375.35 375.35 0 1 1 146.55-29.59A374.24 374.24 0 0 1 504.6 889z m0-743c-202.09 0-366.5 164.41-366.5 366.5S302.51 879 504.6 879s366.49-164.41 366.49-366.5S706.68 146 504.6 146z" fill="#282828" p-id="9089"></path><path d="M284.18 737.25c-19.84 0-38.9-0.75-57-2.28-45.82-3.85-83.5-12.48-112-25.65-32.88-15.2-52.82-36.07-59.27-62s-1.25-68.07 60.28-120.86l24.74 28.84c-36.53 31.35-53.63 60.77-48.14 82.85 7.53 30.31 59 52.36 137.55 59 87.67 7.37 199.28-4.31 314.28-32.89s219.1-70.51 293.11-118.07c66.36-42.64 101.48-86.19 93.94-116.5-5.88-23.69-39.71-43-92.8-53l7-37.34c88.84 16.77 115.73 53.42 122.63 81.21 6.45 25.95-1.4 53.72-23.34 82.55-19 25-48.25 50.23-86.93 75.09-77.43 49.74-185.57 93.42-304.49 123-95.38 23.62-188.93 36.05-269.56 36.05z" fill="#282828" p-id="9090"></path><path d="M760.68 478.6a21.55 21.55 0 0 1-21.17-17.71C713.05 314.73 548.34 265 546.68 264.48a21.54 21.54 0 0 1 12-41.38c7.82 2.26 192 57.37 223.22 230.12a21.54 21.54 0 0 1-17.36 25 22.08 22.08 0 0 1-3.86 0.38z" fill="#FFFFFF" p-id="9091"></path><path d="M760.68 493.6a36.51 36.51 0 0 1-35.93-30c-10.21-56.39-43.47-104.42-98.87-142.74-42.78-29.6-83.06-41.84-83.46-42a36.54 36.54 0 0 1 20.43-70.17c5.44 1.58 54.7 16.46 107.25 53.25 30.72 21.51 56.59 46.36 76.9 73.85a273.82 273.82 0 0 1 49.66 114.75A36.56 36.56 0 0 1 767.22 493a36.74 36.74 0 0 1-6.54 0.6z m-208-256.35a6.55 6.55 0 0 0-1.81 12.83c0.47 0.14 44.51 13.33 91.41 45.62 27.23 18.74 50.14 40.22 68.09 63.82 22.66 29.79 37.42 63 43.88 98.7a6.53 6.53 0 0 0 6.41 5.38 6.73 6.73 0 0 0 1.18-0.11 6.54 6.54 0 0 0 5.28-7.6C737.52 292.26 562 239.67 554.51 237.51a6.65 6.65 0 0 0-1.81-0.26z" fill="#282828" p-id="9092"></path></svg>