<?xml version="1.0" standalone="no"?><!DOCTYPE svg PUBLIC "-//W3C//DTD SVG 1.1//EN" "http://www.w3.org/Graphics/SVG/1.1/DTD/svg11.dtd"><svg t="1574822372541" class="icon" viewBox="0 0 1024 1024" version="1.1" xmlns="http://www.w3.org/2000/svg" p-id="1851" xmlns:xlink="http://www.w3.org/1999/xlink" width="64" height="64"><defs><style type="text/css"></style></defs><path d="M512 100.571429c226.925714 0 411.428571 184.502857 411.428571 411.428571S738.925714 923.428571 512 923.428571 100.571429 738.925714 100.571429 512 285.074286 100.571429 512 100.571429M512 36.571429C249.417143 36.571429 36.571429 249.417143 36.571429 512s212.845714 475.428571 475.428571 475.428571 475.428571-212.845714 475.428571-475.428571S774.582857 36.571429 512 36.571429z" fill="#EF743A" p-id="1852"></path><path d="M538.88 631.222857L569.6 219.428571h-122.331429l32.914286 411.611429h58.697143z m-29.622857 63.268572c-15.36 0-28.708571 5.302857-39.68 15.908571-10.971429 10.605714-16.64 23.588571-16.64 38.765714 0 15.542857 5.485714 28.525714 16.64 38.948572 10.971429 10.422857 24.32 15.725714 39.68 15.725714 15.36 0 28.525714-5.302857 39.68-15.725714 10.971429-10.422857 16.64-23.405714 16.64-38.948572 0-15.177143-5.485714-28.16-16.64-38.765714a55.222857 55.222857 0 0 0-39.68-15.908571z" fill="#EF743A" p-id="1853"></path></svg>