<?xml version="1.0" standalone="no"?><!DOCTYPE svg PUBLIC "-//W3C//DTD SVG 1.1//EN" "http://www.w3.org/Graphics/SVG/1.1/DTD/svg11.dtd"><svg t="1558622414471" class="icon" style="" viewBox="0 0 1024 1024" version="1.1" xmlns="http://www.w3.org/2000/svg" p-id="2007" xmlns:xlink="http://www.w3.org/1999/xlink" width="48" height="48"><defs><style type="text/css"></style></defs><path d="M965.40416 342.76608c-19.50976-52.24704-47.744-100.41472-83.92064-143.16288-18.26688-21.58592-50.57408-24.27392-72.15872-6.0096-21.58464 18.26688-24.2752 50.5728-6.00832 72.15872C861.4336 334.42816 893.44 421.88032 893.44 512c0 210.32576-171.11424 381.44-381.44 381.44-210.32704 0-381.44-171.11424-381.44-381.44 0-210.32704 171.11296-381.44 381.44-381.44 60.48896 0 118.30784 13.72672 171.85152 40.8 25.2288 12.75648 56.03328 2.64704 68.7936-22.58816 12.76032-25.23392 2.64576-56.03456-22.58816-68.7936C662.05312 45.5936 588.68992 28.16 512 28.16c-65.29536 0-128.66432 12.8-188.34688 38.04416-57.62176 24.37248-109.36064 59.2512-153.7792 103.66976-44.41856 44.41856-79.29856 96.15744-103.66976 153.77792C40.96 383.3344 28.16 446.70464 28.16 512c0 65.29536 12.8 128.6656 38.04416 188.34688 24.37248 57.62176 59.2512 109.36064 103.66976 153.7792s96.15744 79.29856 153.7792 103.66976C383.33568 983.04 446.70464 995.84 512 995.84c65.29536 0 128.6656-12.8 188.34816-38.04416 57.62176-24.3712 109.36064-59.2512 153.77792-103.66976 44.41856-44.41856 79.29856-96.15744 103.66976-153.7792C983.04 640.6656 995.84 577.29536 995.84 512 995.84 453.79328 985.6 396.85504 965.40416 342.76608z" p-id="2008" fill="#ffffff"></path><path d="M655.13472 324.41344l-40.77696 36.6464c-117.42976 111.25504-211.00288 248.38272-211.00288 248.38272l-68.58112-132.70528-155.79648 75.74144c65.9136 23.4944 166.75712 107.27424 233.29152 189.30176l0.18304 0.03584c39.0592-71.35616 175.5264-198.98112 272.97408-264.12928l38.28992-23.38432c15.08992-8.14848 28.28032-13.73824 38.80192-16.0768-30.0352-68.47104-3.69024-124.11776 0.58496-188.3136C726.8928 268.43776 690.35776 294.5984 655.13472 324.41344z" p-id="2009" fill="#ffffff"></path></svg>