<?xml version="1.0" standalone="no"?><!DOCTYPE svg PUBLIC "-//W3C//DTD SVG 1.1//EN" "http://www.w3.org/Graphics/SVG/1.1/DTD/svg11.dtd"><svg t="1561952098451" class="icon" viewBox="0 0 1024 1024" version="1.1" xmlns="http://www.w3.org/2000/svg" p-id="1985" width="128" height="128" xmlns:xlink="http://www.w3.org/1999/xlink"><defs><style type="text/css"></style></defs><path d="M287.774 256.1l-8.548 5.028c-1.508 1.007-3.018 2.011-3.518 3.518s0 7.041 0 9.050c0.502 6.537 0.502 14.58-5.028 19.104-5.028 4.022-11.562 2.513-16.59-0.502l-4.022-2.011v-4.525c0-3.518 0.502-6.537 0.502-9.552 0-5.531-6.032-6.032-10.559-6.032-4.022 0-7.54 0.502-11.562 1.007-4.022 0.502-8.043 1.508-11.562-1.007-4.525-3.018-5.028-8.548-5.028-13.573 0-1.508 0.502-3.018 1.007-4.022 3.018-5.531 8.548-5.028 13.573-6.032 7.041-1.007 14.077-1.007 21.115-1.508 12.567-1.007 18.602-5.531 29.161-11.061 3.518-2.011 6.032-4.022 10.559-4.022 6.537 0 11.562 8.548 11.562 14.58 0.502 6.537-6.032 9.050-11.061 11.562v0zM183.203 321.961c0 1.007 0.502 2.011 0.502 3.518 0 2.513 0 4.525 0 7.041-0.502 6.537-2.513 14.58-10.559 14.58-5.028 0-10.054-1.007-12.066-6.032-2.011-4.022 0-10.559-1.007-11.562-1.007-1.007-6.032-0.502-7.54-0.502-4.525 0.502-10.559 1.508-15.084 0.502l-4.525-1.007-1.007-4.525c-0.502-3.018-1.508-4.525-1.508-7.54v0c0-2.011 0.502-4.022 2.011-6.032 2.513-3.518 6.032-3.518 10.054-4.022 15.584-2.011 17.597 1.007 32.679-6.537 3.518-2.011 10.054-6.537 14.077-6.537 6.537 0 11.562 7.041 11.562 13.573 0 7.041-7.54 10.054-13.072 12.567-0.502 0-3.518 1.508-4.525 2.513z" p-id="1986" fill="#4485f5"></path><path d="M275.708 714.106c-6.032 0-12.066-3.518-15.584-9.050-24.132-43.236-36.7-92.003-36.7-141.775 0-160.377 130.213-290.591 290.591-290.591s290.591 130.213 290.591 290.591c0 42.23-9.050 82.955-26.142 121.163-4.022 9.050-14.58 13.072-23.631 8.548-9.050-4.022-13.072-14.58-8.548-23.631 15.084-33.182 23.126-68.878 23.126-106.079 0-140.268-114.125-254.894-254.894-254.894-140.268 0-254.894 114.125-254.894 254.894 0 43.741 11.061 86.473 32.174 124.178 5.028 8.548 1.508 19.607-7.041 24.132-3.018 2.011-6.032 2.513-9.050 2.513z" p-id="1987" fill="#4485f5"></path><path d="M779.966 520.548c-10.054 0-17.597-8.043-17.597-17.597v-318.742c0-7.041 4.022-13.072 10.054-16.090s13.573-2.011 19.104 2.513l96.025 78.429c7.54 6.032 8.548 17.597 2.513 25.139s-17.597 8.548-25.139 2.513l-66.864-54.799v280.534c-0.502 10.054-8.548 18.098-18.098 18.098z" p-id="1988" fill="#4485f5"></path><path d="M417.484 611.545c-4.525 0-9.050-1.508-12.567-5.028l-49.269-48.765c-7.041-7.041-7.041-18.098 0-25.139s18.098-7.041 25.139 0l49.269 48.765c7.041 7.041 7.041 18.098 0 25.139-3.518 3.018-8.043 5.028-12.567 5.028z" p-id="1989" fill="#4485f5"></path><path d="M371.231 612.55c-4.525 0-9.050-1.508-12.066-5.028-7.041-6.537-7.54-18.098-0.502-25.139l47.763-50.275c6.537-7.041 18.098-7.54 25.139-0.502 7.041 6.537 7.54 18.098 0.502 25.139l-48.265 50.778c-3.018 3.518-7.54 5.028-12.567 5.028z" p-id="1990" fill="#4485f5"></path><path d="M653.775 611.545c-4.525 0-9.050-1.508-12.567-5.028l-49.269-48.765c-7.041-7.041-7.041-18.098 0-25.139s18.098-7.041 25.139 0l49.269 48.765c7.041 7.041 7.041 18.098 0 25.139-3.018 3.018-8.043 5.028-12.567 5.028z" p-id="1991" fill="#4485f5"></path><path d="M608.025 612.55c-4.525 0-9.050-1.508-12.066-5.028-7.041-6.537-7.54-18.098-0.502-25.139l48.265-50.778c6.537-7.041 18.098-7.54 25.139-0.502 7.041 6.537 7.54 18.098 0.502 25.139l-48.265 50.778c-4.022 4.022-8.548 5.531-13.072 5.531z" p-id="1992" fill="#4485f5"></path><path d="M183.203 784.491c-11.562 0-22.624-8.043-38.713-21.617-7.041-6.032-14.077-9.050-20.613-8.043-7.54 1.007-15.084 6.032-21.617 15.084-5.531 8.043-17.093 9.552-24.634 4.022-8.043-5.531-9.552-17.093-4.022-24.634 12.567-17.093 28.657-27.651 46.254-29.663 11.562-1.508 29.161 0.502 48.265 16.59 7.041 6.032 12.567 10.559 15.584 12.066 1.508-1.007 3.018-2.011 4.022-3.018 3.018-2.513 7.041-5.028 11.562-8.548 28.657-19.607 41.729-13.072 63.849 1.007l3.018 2.011c9.552 6.032 12.066 7.041 13.072 7.041 1.007-0.502 6.032-3.518 10.559-6.032l7.54-5.028c25.639-16.090 43.236-25.139 76.921-2.513 22.121 14.58 22.121 14.58 38.209 3.518 2.513-2.011 5.531-4.022 8.548-6.032 29.663-19.607 44.745-13.072 66.864-1.508l4.525 2.513c3.018 1.508 5.531 3.018 8.043 4.525 6.032 3.018 12.066 6.537 14.58 7.041 2.011-0.502 8.043-4.022 13.573-7.54 5.028-3.018 11.562-6.537 19.607-11.061 24.634-13.072 42.23-14.077 81.947 16.090 1.007 0.502 7.54-1.007 18.602-10.559 26.645-24.132 47.259-12.567 62.34-4.022 11.061 6.537 22.624 13.072 41.729 12.567 3.518 0 9.552-4.022 15.084-7.54 13.072-9.050 34.69-23.631 62.843-5.028 31.17 20.613 32.679 21.617 66.864-1.508 8.043-5.531 17.597-7.54 26.645-5.531 12.567 2.513 24.132 11.562 34.188 27.149 5.531 8.043 3.018 19.104-5.028 24.634-8.043 5.531-19.104 3.018-24.634-5.028-5.531-8.043-9.552-11.061-11.061-11.562 0 0 0 0 0 0-47.763 31.674-64.854 29.161-106.583 1.508-7.041-4.525-9.552-4.022-23.126 5.028-9.050 6.032-20.11 13.573-34.69 13.573-29.161 0-47.763-10.559-59.826-17.597-13.072-7.54-13.072-7.54-20.613-0.502-33.182 30.163-55.805 19.104-63.849 12.567-28.155-21.115-32.174-19.104-43.741-13.072-7.54 4.022-13.573 7.54-18.602 10.559-27.651 16.090-34.188 16.090-62.843 0.502-2.513-1.508-5.028-2.513-8.043-4.525l-4.525-2.513c-16.59-9.050-16.59-9.050-30.163 0-3.018 2.011-5.531 4.022-8.043 5.531-25.639 17.597-39.717 22.121-77.926-3.518-16.090-11.061-16.59-10.559-38.209 3.018l-7.54 5.028c-22.121 14.077-33.182 17.597-61.839-1.007l-3.518-2.011c-5.531-3.518-11.562-7.54-13.573-7.54 0 0-2.513 0.502-11.061 6.032-4.022 2.513-7.041 5.028-10.054 7.041-10.054 8.548-18.098 12.066-26.142 12.066z" p-id="1993" fill="#4485f5"></path><path d="M242.025 854.874c-11.061 0-21.617-9.050-35.696-23.126-3.518-3.518-8.548-7.54-13.573-7.041-5.028 0.502-11.061 6.032-16.090 14.077-5.028 8.548-16.090 11.061-24.634 6.032-8.548-5.028-11.061-16.090-6.032-24.634 11.061-18.098 26.142-29.161 42.23-30.668 10.559-1.007 26.645 1.007 43.236 17.597 4.022 4.525 7.54 7.54 10.054 9.552 0.502 0 0.502-0.502 0.502-0.502 2.513-2.513 6.032-5.531 10.054-8.548 26.142-21.115 39.717-13.573 59.324 1.007l2.513 2.011c4.022 3.018 6.537 4.525 8.043 5.531 2.011-1.007 4.525-3.018 6.537-5.028l6.537-5.028c19.607-14.58 37.706-28.155 70.385-2.513 11.061 9.050 15.584 10.559 16.59 11.061 2.011-1.007 6.032-4.525 9.552-7.041 2.011-2.011 4.525-4.022 7.54-6.032 26.645-20.613 41.729-14.077 61.335-1.508l4.022 2.513c2.513 1.508 5.028 3.018 7.041 4.525 3.518 2.513 7.041 4.525 9.552 6.032 2.011-1.508 6.032-4.022 9.050-6.032 4.525-3.018 9.552-6.537 16.59-11.061 24.634-16.090 42.23-12.567 72.898 15.084 2.011-1.007 6.032-3.518 11.061-9.050 25.139-26.645 45.75-12.567 58.32-4.022 9.050 6.032 18.098 12.066 32.679 12.066 1.508 0 7.041-4.525 10.054-7.041 10.559-8.548 32.174-25.639 58.32-5.028 24.634 19.607 24.634 19.607 51.281-1.508 7.54-6.032 16.59-8.043 25.139-6.537 12.066 2.513 22.624 12.066 31.674 28.657 4.525 8.548 1.508 19.607-7.041 24.132-8.548 4.525-19.607 1.508-24.132-7.041-2.513-4.525-5.028-7.54-6.537-9.050-40.22 31.17-57.313 27.149-92.505-0.502-2.011-1.508-3.518-2.011-3.518-2.011-2.011 0-7.54 4.525-10.559 7.041-8.043 6.537-18.098 14.58-32.174 14.58 0 0-0.502 0-0.502 0-25.639 0-41.729-11.061-52.789-18.098-2.513-1.508-6.032-4.022-7.54-5.028-1.007 0.502-2.011 1.508-4.022 4.022-31.17 33.684-53.29 18.098-59.826 12.567-21.617-19.104-23.126-18.098-31.17-12.567-6.537 4.022-11.562 7.54-15.584 10.559-24.634 17.093-32.174 17.093-57.815 1.007-2.011-1.508-4.022-2.513-6.537-4.022l-4.022-2.513c-4.022-2.513-9.050-6.032-11.061-6.032 0 0-2.513 0.502-9.552 6.032-2.513 2.011-4.525 3.518-7.041 5.531-24.132 19.607-38.713 22.121-71.39-3.518-9.050-7.041-11.562-7.041-11.562-7.041-2.513 0.502-9.050 5.531-15.084 10.054l-6.537 5.028c-21.115 15.584-32.679 18.098-57.815-1.007l-3.018-2.011c-3.018-2.513-6.537-5.028-8.548-6.032-1.007 0.502-3.018 2.011-6.537 4.525-3.018 2.513-6.032 5.028-8.043 7.041-8.043 6.537-16.090 10.559-23.631 10.559z" p-id="1994" fill="#4485f5"></path></svg>