<?xml version="1.0" standalone="no"?><!DOCTYPE svg PUBLIC "-//W3C//DTD SVG 1.1//EN" "http://www.w3.org/Graphics/SVG/1.1/DTD/svg11.dtd"><svg t="1565679560320" class="icon" viewBox="0 0 1024 1024" version="1.1" xmlns="http://www.w3.org/2000/svg" p-id="2913" width="64" height="64" xmlns:xlink="http://www.w3.org/1999/xlink"><defs><style type="text/css"></style></defs><path d="M128 298.666667v512c0 46.933333 38.4 85.333333 85.333333 85.333333h597.333334c46.933333 0 85.333333-38.4 85.333333-85.333333V298.666667H128z" fill="#607D8B" p-id="2914"></path><path d="M426.666667 128h298.666666v277.333333H426.666667z" fill="#FF8A65" p-id="2915"></path><path d="M426.666667 128v277.333333l-85.333334-42.666666V128z" fill="#E0623B" p-id="2916"></path><path d="M810.666667 128h-128v403.2l213.333333 121.6V213.333333c0-46.933333-38.4-85.333333-85.333333-85.333333zM128 213.333333v371.2L364.8 512V128H213.333333c-46.933333 0-85.333333 38.4-85.333333 85.333333z" fill="#FFB74D" p-id="2917"></path><path d="M234.666667 467.2l-106.666667 32v-147.2c0-25.6 19.2-49.066667 44.8-53.333333 32-4.266667 61.866667 21.333333 61.866667 53.333333v115.2zM234.666667 226.133333l-106.666667 19.2V213.333333c0-46.933333 38.4-85.333333 85.333333-85.333333h21.333334v98.133333zM896 328.533333L789.333333 298.666667v170.666666l106.666667 42.666667zM810.666667 128h-21.333334v85.333333l106.666667 29.866667V213.333333c0-46.933333-38.4-85.333333-85.333333-85.333333z" fill="#805A26" p-id="2918"></path><path d="M490.666667 128h128v42.666667h-128zM490.666667 234.666667h128v128h-128z" fill="#AB4B2D" p-id="2919"></path></svg>