<?xml version="1.0" standalone="no"?><!DOCTYPE svg PUBLIC "-//W3C//DTD SVG 1.1//EN" "http://www.w3.org/Graphics/SVG/1.1/DTD/svg11.dtd"><svg t="1563260760528" class="icon" viewBox="0 0 1024 1024" version="1.1" xmlns="http://www.w3.org/2000/svg" p-id="8889" xmlns:xlink="http://www.w3.org/1999/xlink" width="64" height="64"><defs><style type="text/css"></style></defs><path d="M512 0a512 512 0 0 0-512 512 512 512 0 0 0 512 512 512 512 0 0 0 512-512 512 512 0 0 0-512-512z" fill="#FD6B6D" p-id="8890"></path><path d="M513.755429 565.540571L359.277714 720.018286a39.058286 39.058286 0 0 1-55.296-0.073143 39.277714 39.277714 0 0 1 0.073143-55.442286l154.331429-154.331428-155.062857-155.136a36.571429 36.571429 0 0 1 51.712-51.785143l365.714285 365.714285a36.571429 36.571429 0 1 1-51.785143 51.785143L513.755429 565.540571z m157.549714-262.582857a35.254857 35.254857 0 1 1 49.737143 49.737143l-106.057143 108.982857a35.254857 35.254857 0 1 1-49.883429-49.810285l106.203429-108.982858z" fill="#FFFFFF" p-id="8891"></path></svg>