<?xml version="1.0" standalone="no"?><!DOCTYPE svg PUBLIC "-//W3C//DTD SVG 1.1//EN" "http://www.w3.org/Graphics/SVG/1.1/DTD/svg11.dtd"><svg t="1559726085808" class="icon" style="" viewBox="0 0 1024 1024" version="1.1" xmlns="http://www.w3.org/2000/svg" p-id="3513" xmlns:xlink="http://www.w3.org/1999/xlink" width="64" height="64"><defs><style type="text/css"></style></defs><path d="M420.325053 618.846316l-118.837895-127.326316a28.025263 28.025263 0 1 1 39.612631-39.612632l79.225264 84.884211 192.40421-192.404211a28.025263 28.025263 0 0 1 39.612632 39.612632z" fill="#83D2EA" p-id="3514"></path><path d="M802.277053 862.154105h-8.488421l-195.233685-28.294737a848.357053 848.357053 0 0 1-124.496842 14.147369A386.721684 386.721684 0 0 1 89.276632 446.248421a386.209684 386.209684 0 0 1 653.581473-263.141053 383.272421 383.272421 0 0 1 118.837895 277.288421 588.449684 588.449684 0 0 1-42.442105 175.427369l45.271579 144.303158a57.882947 57.882947 0 0 1-11.317895 56.589473 73.377684 73.377684 0 0 1-50.930526 25.438316z m-206.551579-84.88421l206.551579 28.294737h2.829473v-2.694737l-50.930526-161.28 2.829474-8.488421a601.6 601.6 0 0 0 42.442105-164.109474 332.180211 332.180211 0 0 0-101.861053-237.675789 317.116632 317.116632 0 0 0-240.505263-90.543158 328.192 328.192 0 0 0-223.528421 554.549894 327.383579 327.383579 0 0 0 237.67579 101.861053 886.245053 886.245053 0 0 0 118.837894-14.147368z" fill="#208BB5" p-id="3515"></path></svg>